<svg xmlns="http://www.w3.org/2000/svg" viewBox="0 0 2010 2461" role="img" aria-label="Empório CTZ"><title>Empório CTZ</title><path fill="#EE9E00" fill-rule="evenodd" d="M1537.2 1525C1512.1 1518.4 1494.3 1496.8 1487.9 1465C1485.3 1452.6 1484.3 1425.1 1485.9 1410.4C1489.9 1371.9 1507.2 1346.2 1535.1 1337.5L1540.6 1335.8L1540.2 1330.1C1539.8 1324.6 1540.1 1323.8 1549.9 1304.2L1560 1284L1573.9 1284C1589.5 1284 1589 1283.8 1589 1291.7C1589 1295.8 1588 1297.7 1576 1315.1C1568.8 1325.5 1563 1334.2 1563 1334.5C1563 1334.8 1565.4 1335 1568.4 1335C1571.3 1335 1577.4 1336 1581.8 1337.3C1605.7 1344.2 1621.9 1364 1629.2 1394.9C1631.7 1405.7 1632.9 1442 1631.1 1455.2C1625.9 1493.9 1606.6 1519.4 1577.5 1525.6C1568.2 1527.6 1546 1527.3 1537.2 1525ZM1906.3 1525.1C1889.1 1520.8 1874.8 1509.5 1865.5 1492.6C1855.1 1473.6 1850.9 1443.7 1854 1410.8C1857.9 1370.3 1877.4 1343.2 1907.5 1336.5C1918.3 1334.1 1942.8 1334.8 1952.1 1337.8C1969.5 1343.5 1984.4 1358.6 1992 1378.1C1998.1 1394 1999.2 1400.4 1999.7 1425.2C2000.5 1461 1996.7 1479.5 1984.5 1498C1974.9 1512.6 1963.6 1520.9 1947.6 1525C1937.2 1527.6 1916.9 1527.7 1906.3 1525.1ZM1043.6 1520.8C1042.2 1518.8 1042 1508.6 1042 1430.4C1042 1346.3 1042.1 1342.2 1043.8 1340.7C1045.5 1339.2 1050.8 1339 1099.6 1339C1140.3 1339 1153.9 1339.3 1154.8 1340.2C1156.5 1341.9 1156.5 1370.1 1154.8 1371.8C1153.9 1372.7 1143.4 1373 1113.8 1373L1074 1373L1074 1392L1074 1411L1110.6 1411C1144.4 1411 1147.4 1411.1 1148.6 1412.8C1150.5 1415.2 1150.5 1439.8 1148.6 1442.2C1147.4 1443.9 1144.4 1444 1110.6 1444L1074 1444L1074 1466L1074 1488L1113.8 1488C1148.2 1488 1153.9 1488.2 1155.8 1489.6C1157.9 1491 1158 1491.8 1158 1505.4C1158 1518 1157.8 1519.9 1156.2 1521.3C1154.5 1522.8 1149.1 1523 1099.7 1523L1045.1 1523L1043.6 1520.8ZM1181.7 1521.2C1180.1 1519.5 1180 1511.8 1180 1430.4C1180 1362.5 1180.3 1341.1 1181.2 1340.2C1182.9 1338.5 1218.6 1338.5 1219.2 1340.2C1219.5 1340.9 1227.1 1368.8 1236.1 1402.2L1252.5 1462.8L1254.2 1456.7C1255.1 1453.3 1259.6 1437.7 1264 1422C1268.5 1406.3 1273.1 1389.7 1274.4 1385C1275.7 1380.3 1279.1 1368.1 1282 1357.8L1287.3 1339L1305.4 1339C1318.2 1339 1324 1339.4 1324.8 1340.2C1326.7 1342.1 1326.5 1518.8 1324.6 1521.2C1323.5 1522.7 1321.5 1523 1311.3 1523C1303.3 1523 1298.8 1522.6 1297.7 1521.8C1296.2 1520.6 1296 1516.1 1295.8 1470.1L1295.5 1419.7L1286.1 1453.1C1280.9 1471.5 1274.3 1494.6 1271.5 1504.5L1266.4 1522.5L1252.1 1522.5L1237.8 1522.5L1230 1494.5C1225.8 1479.1 1219.7 1456.8 1216.4 1445L1210.5 1423.5L1210.2 1471.4C1210 1514.3 1209.8 1519.6 1208.3 1521.2C1206.9 1522.7 1205 1523 1195 1523C1184.9 1523 1183.1 1522.7 1181.7 1521.2ZM1356.6 1520.5C1355.2 1518.3 1355 1509.4 1355 1430.2C1355 1345.1 1355.1 1342.3 1356.9 1340.6C1358.6 1339 1362 1338.9 1397.2 1339.2C1439.9 1339.6 1440.7 1339.7 1451 1346.8C1464.2 1355.7 1471.3 1376.8 1469.4 1401.5C1468.2 1418.4 1464.1 1428.8 1455.5 1437.9C1445.3 1448.6 1435.6 1450.9 1401.2 1451L1387 1451L1387 1485.3C1387 1517.3 1386.9 1519.8 1385.2 1521.3C1383.7 1522.7 1381.1 1523 1370.8 1523C1358.5 1523 1358.2 1522.9 1356.6 1520.5ZM1657.2 1521.4L1655 1519.9L1655 1431.2C1655.1 1359 1655.3 1342.2 1656.4 1340.8C1657.6 1339.1 1660.6 1339 1694.1 1339C1731.7 1339 1739.6 1339.6 1747.6 1343C1758.4 1347.7 1766.3 1357.7 1770 1371.3C1771.9 1378.4 1772.2 1381.3 1771.8 1394.9C1771.3 1412.4 1769.8 1418.2 1763.5 1426.5C1760.8 1430 1760.4 1431.1 1761.5 1432C1763.8 1433.9 1767 1442.7 1768 1450.2C1768.5 1454.2 1769.4 1466 1770 1476.5C1771.2 1497.4 1772 1501.8 1775 1504.5C1776.6 1506 1777 1507.6 1777 1513C1777 1522.8 1776.7 1523 1758.8 1523L1744.2 1523L1743.2 1520.2C1740.8 1514.1 1740 1508.8 1739 1490.6C1737.3 1461.2 1735.9 1454.6 1730.5 1452.2C1726.4 1450.3 1710.6 1448.9 1698 1449.2L1686.5 1449.5L1686 1485.3C1685.6 1515.6 1685.3 1521.2 1684 1522C1683.2 1522.5 1677.3 1523 1671 1523C1662.1 1523 1658.9 1522.6 1657.2 1521.4ZM1799.7 1521.2C1798.1 1519.5 1798 1511.8 1798 1430.9C1798.1 1359 1798.3 1342.2 1799.4 1340.8C1800.5 1339.2 1802.5 1339 1813.7 1339C1822.4 1339 1827 1339.4 1827.8 1340.2C1829.7 1342.1 1829.5 1518.8 1827.6 1521.2C1826.5 1522.8 1824.5 1523 1813.8 1523C1803 1523 1801.1 1522.8 1799.7 1521.2ZM1574.1 1489.9C1589.6 1481.6 1598.6 1463 1599.7 1436.4C1601.1 1403.5 1592 1381.4 1572.8 1371.3C1568.2 1368.9 1566.3 1368.5 1559 1368.5C1551.3 1368.5 1549.8 1368.8 1543.8 1371.8C1532.4 1377.4 1524.1 1389.5 1519.8 1406.8C1516.9 1418.5 1516.6 1441.7 1519.3 1453.5C1523.1 1470.2 1532.7 1484.5 1543.5 1489.9C1550.4 1493.3 1553.6 1494 1561.3 1493.5C1566.4 1493.2 1569.4 1492.4 1574.1 1489.9ZM1942.1 1489.9C1952.7 1484.2 1961.3 1471.9 1965.5 1456.5C1967.8 1448.2 1968.7 1422 1967 1412.6C1963.4 1392.4 1953.4 1376.8 1940.2 1370.7C1933 1367.4 1920.4 1367.6 1912.8 1371.2C1897.2 1378.5 1887.1 1398.1 1885.4 1424.3C1884.3 1441.9 1888.1 1462 1894.8 1473.3C1905.9 1491.9 1925.4 1498.8 1942.1 1489.9ZM1427 1414.6C1432.6 1411.7 1434.9 1409 1436.5 1403.6C1438.4 1397.3 1438.4 1392.7 1436.5 1386.4C1433.3 1375.5 1427 1373 1403.3 1373L1387 1373L1387 1395.1L1387 1417.2L1405.2 1416.8C1420.4 1416.5 1424.1 1416.1 1427 1414.6ZM1726 1415C1736.1 1411.3 1740.4 1404.1 1739.8 1391.9C1738.9 1375.4 1732.6 1372.1 1702.8 1372L1686 1372L1686 1394.6L1686 1417.2L1704.2 1416.8C1715.5 1416.5 1723.8 1415.8 1726 1415ZM810.9 1337.6C805.8 1334.9 699.3 1254.5 692.7 1248.3C672.5 1229.4 641.4 1217.1 603 1213C597.1 1212.3 582.5 1212 569.7 1212.2L546.8 1212.5L544.9 1210.2C543.9 1208.9 542.2 1205.5 541.3 1202.7C539.6 1197.8 539.5 1176 539.2 793C539 513.8 539.3 385.4 540 378.5C541.8 361.4 549.4 349.4 562.6 342.7C572.2 337.9 573.2 337.8 658 338.2C731.1 338.5 737.9 338.7 741.9 340.3C748.8 343 752.6 346.5 755.7 352.7L758.5 358.5L759 430.1L759.5 501.7L764.3 507.4C770.7 514.8 780.6 521.8 788.2 524.1C793.3 525.7 795.2 525.9 799.7 525C808.2 523.5 818.4 517.5 827.1 509L834.9 501.4L835.2 427.4L835.5 353.5L838 349.2C841 343.9 847.7 339.3 853.9 338.4C856.4 338 943.6 338 1047.7 338.4C1207.6 339 1237.6 339.3 1241.7 340.5C1248.2 342.4 1253.8 347.3 1256.6 353.4L1259 358.5L1259 428.3C1259 508.6 1258.1 501 1269.4 512.4C1281.6 524.6 1291.3 527.6 1301.8 522.4C1308 519.3 1316.4 511.9 1320.6 505.9L1323.5 501.7L1324 428.1L1324.5 354.5L1327.3 349.7C1328.8 347.1 1332 343.7 1334.2 342.2L1338.4 339.5L1423.4 339.5L1508.5 339.5L1515.2 342.7C1519 344.5 1523.6 347.1 1525.5 348.6C1531.2 352.9 1537.5 362.1 1539.9 369.6L1542 376.5L1541.8 667.4L1541.5 958.4L1534.9 959.6C1531.2 960.3 1526.3 961.8 1523.9 963C1513.4 968.3 1491.9 984.9 1481.4 995.7C1475.5 1001.8 1475.2 1002 1470.2 1002C1465.4 1002 1464.7 1001.7 1460.5 997.5C1449.9 987.1 1419.4 969.8 1401.5 964C1363.4 951.9 1325.5 958.5 1292.4 983.3C1281.2 991.7 1267.1 1005.9 1258.6 1017.3L1252.9 1025L1246.9 1025L1240.8 1025L1233.6 1018.4C1204.6 991.5 1174.6 980.3 1145 985.4C1121.6 989.5 1095.7 1002.3 1075.5 1019.9C1069.4 1025.2 1068 1026 1064.4 1026C1061.3 1026 1060.1 1025.6 1059.7 1024.2C1059.5 1023.3 1041.2 959.3 1019.1 882C993.3 791.7 977.9 739.5 976 735.8C967.6 719.4 951.3 701.4 935.5 690.9C909.8 673.8 874.9 665.4 840.3 668.1C815.4 670.1 804.7 673.5 783 686.6C734.2 716 707.9 760.6 708 813.8C708 832.6 709.8 841.7 723 890.8C729.7 915.4 738.5 948.1 742.6 963.5C746.7 978.9 751.4 996.2 753 1002C754.6 1007.8 758.4 1021.7 761.4 1033C764.4 1044.3 769.2 1062 772 1072.5C774.8 1083 781.2 1106.6 786.1 1125C791.1 1143.4 796.3 1162.8 797.7 1168C799.1 1173.2 800.8 1180 801.5 1183C802.1 1186 808.6 1210.3 815.8 1237C830.5 1291.4 832.2 1299.6 832.4 1316C832.6 1336 831 1339 820.2 1339C816.5 1339 812.3 1338.4 810.9 1337.6Z"/><path fill="#1B1713" fill-rule="evenodd" d="M330.5 2449.9C246.8 2442.8 177.1 2412 123.5 2358.5C84 2319.2 55.8 2272.4 36.5 2214.5C17.6 2157.7 8.3 2083.9 11.1 2012.1C15.4 1897.1 50.5 1807.9 117.8 1740.3C176.6 1681.3 252 1648.8 345.9 1641.9C366.4 1640.4 413.2 1641.3 432 1643.4C514.8 1653 580 1683 630 1734.6C662.4 1767.9 683.5 1806.4 695.5 1854C698.6 1866.1 703 1889.8 703 1894.2C703 1895.1 700 1899.3 696.3 1903.4L689.5 1911L632.3 1911L575.1 1911L574 1905.2C565.3 1861.4 548.5 1829.5 521.5 1805.6C494.9 1782.1 462.6 1768.2 419 1761.3C402.4 1758.7 351.5 1758.7 335.2 1761.3C272.9 1771.3 228.7 1799 194.5 1849.5C186.9 1860.8 173.8 1886.8 168.6 1901C152.5 1945 144.9 1998.5 146.3 2058C147.6 2113.1 156.1 2156.2 173.6 2197C192.2 2240.1 222.9 2277.9 257.7 2300.7C292.1 2323.2 327.6 2333 374.8 2333C414 2333 442.4 2327.2 471.7 2313C491.2 2303.7 504.3 2294.6 519.9 2279.5C548.2 2252.2 566 2219.4 573.9 2179.9C576.8 2165.5 579 2146.2 579 2135.8L579 2127L636.9 2127L694.8 2127L701.5 2134.2L708.2 2141.5L707.6 2151.5C701.1 2254.6 655 2338.9 575.5 2393.2C527.5 2426 472.3 2444.5 406.7 2449.9C391.9 2451.2 345.2 2451.1 330.5 2449.9ZM1395.5 2430.3L1388.5 2429.9L1381.8 2423.2L1375 2416.6L1375 2372L1375 2327.4L1409.8 2284.9C1428.9 2261.6 1522.9 2147 1618.6 2030.4C1793.3 1817.3 1825.2 1778.2 1825.8 1776.8C1826 1776.4 1734.8 1776 1623.2 1776L1420.2 1776L1413.1 1769.4L1406 1762.8L1406 1718.1L1406 1673.4L1412.8 1666.7L1419.6 1660L1698.5 1660L1977.5 1660L1984.8 1667.1L1992 1674.2L1992 1723.4L1991.9 1772.5L1957.4 1814.5C1938.4 1837.6 1921.2 1858.5 1919.2 1861C1912.4 1869.3 1779.4 2031.4 1771.8 2040.5C1768.7 2044.3 1738.6 2081 1704.9 2122C1671.3 2163 1632.7 2210 1619.1 2226.5C1574.6 2280.5 1550.5 2310.1 1550.2 2311.1C1550 2311.6 1632.8 2312 1763.5 2312L1977.1 2312L1984.6 2318.7L1992 2325.5L1992 2371L1992 2416.6L1984.7 2423.8L1977.5 2431L1690 2430.8C1531.9 2430.7 1399.3 2430.5 1395.5 2430.3ZM1013 2428.3L1004.5 2427.9L998.8 2422.2L993 2416.6L993 2142.3L993 1868L895.7 1868L798.4 1868L791.7 1861.7L785 1855.5L785 1817L785 1778.4L791.3 1772.2L797.6 1766L1049.8 1766L1302.1 1766L1308.6 1771.8L1315 1777.5L1315 1816.9L1315 1856.3L1309.3 1862.1L1303.6 1868L1205.8 1868L1108 1868L1108 2142.4L1108 2416.7L1101.5 2422.9L1095 2429L1058.2 2428.8C1038 2428.7 1017.7 2428.4 1013 2428.3ZM842 1739.6C830.4 1736.5 824.7 1733.8 818.1 1728.2C751.6 1671.9 531.3 1482.4 523.5 1474.8C503 1455.2 481.3 1428.8 467.7 1407.3C457.1 1390.3 449.4 1371.7 445.4 1352.8C442.7 1340.3 442.9 1316.2 445.8 1305.5C448.7 1294.9 453.5 1285 459.7 1276.8L464.8 1270.2L465.9 1034.8C466.5 905.4 467.3 721.7 467.6 626.5C467.9 531.3 468.5 430.5 469 402.5L469.7 351.5L472.4 342.7C477.2 326.6 483.8 315.4 495.9 302.6C510.6 287.2 529.6 275.6 546.3 271.7C555.3 269.6 558.3 269.6 660 269L764.5 268.5L765.1 255C766 235.7 768.6 214.3 770.9 208C792.3 146.4 830.1 96.8 881.8 62.3C903.8 47.7 934.7 33.4 962.6 24.9C1001.6 13.1 1048.3 7.5 1075 11.4C1111.5 16.7 1139.3 25.2 1169.7 40.1C1197.6 53.9 1221.2 70.9 1243.5 93.4C1273.2 123.4 1295.5 158.3 1310.4 198.2C1313.8 207.5 1314 208.5 1314 220.7C1314 235.4 1315.7 244.6 1319.8 253.4C1323 260 1328.7 266.6 1332.8 268.1C1334.4 268.7 1370.8 268.8 1432.4 268.4C1536.1 267.6 1536.3 267.7 1550.2 272.5C1578.6 282.4 1598.2 311.4 1604.5 353C1605.8 361.1 1606 401.8 1606 636.6C1606 787.3 1606.3 919.4 1606.7 930.1L1607.3 949.5L1619.9 949.6C1637.3 949.6 1646.9 952.4 1663 961.8C1686 975.3 1708.9 1003.3 1721.4 1033.3C1729.1 1051.8 1737.6 1083.3 1745.4 1122C1749.6 1142.9 1757 1188.9 1757 1194C1757 1197.5 1749.9 1210.1 1745.5 1214.5C1739 1221 1735 1222.5 1724 1222.5C1715.5 1222.5 1713.8 1222.1 1707.9 1219.3C1700.1 1215.7 1691.4 1209.9 1684.7 1203.8L1679.9 1199.5L1662 1142C1652.2 1110.4 1642.5 1079.8 1640.6 1074C1636.4 1061.8 1630.9 1053.1 1620.5 1042.5C1599.9 1021.3 1578.3 1017.5 1555.5 1031C1549 1034.9 1534.1 1049.1 1529.5 1055.9L1526.5 1060.3L1525.5 1087.9L1524.5 1115.6L1521 1121.4C1517.1 1127.9 1507.7 1138.7 1501.9 1143.6C1488.9 1154.5 1473.7 1154.1 1461.2 1142.7C1451 1133.3 1440.8 1114.7 1435.9 1096.8C1430.5 1076.6 1424.6 1065.5 1413.9 1055C1395.8 1037.3 1365.8 1031.4 1345.3 1041.5C1328.2 1049.9 1315 1073.7 1312.4 1100.8C1311.2 1113.1 1298.7 1133.6 1286.7 1142.8C1270.7 1155.2 1252.7 1153.3 1233.7 1137.1C1225.9 1130.6 1219.3 1122.8 1210.8 1110C1197.4 1090.1 1185.5 1077.9 1173.8 1071.9C1168.6 1069.2 1159.5 1067 1153.8 1067C1147.7 1067 1137.2 1070.8 1130.4 1075.5C1120.1 1082.6 1103.8 1102.1 1100.3 1111.6C1099.7 1113.2 1098.2 1125.8 1097 1139.5C1094.9 1163.6 1094.7 1164.7 1091.6 1170.5C1087 1179.3 1079 1187.4 1071.2 1191.2C1064.9 1194.3 1064 1194.5 1053.5 1194.5C1043.5 1194.4 1041.8 1194.1 1034.5 1191.2C1030.1 1189.5 1023.6 1186.1 1020 1183.8L1013.5 1179.5L1008.7 1161C996.7 1115.4 972.7 1025.7 942.5 913.5C939.5 902.5 930.5 869 922.5 839.1C914.4 809.2 907.5 783.7 907 782.5C905.9 779.7 893.1 768.1 883.2 761C868.5 750.5 856.4 745.8 844 745.6C836.3 745.5 834.8 745.8 828.8 748.8C810 758 797.2 785.1 792.5 825.6L791 838.2L807.1 897.4C815.9 929.9 827.4 972.2 832.6 991.5C856.7 1080.2 862.5 1101.7 870.9 1132.5C875.9 1150.7 881.9 1172.7 884.4 1181.5C888.9 1197.6 912.3 1284.4 926.3 1337C930.5 1352.7 939.6 1386.4 946.5 1412C955.2 1444 958.9 1459.4 958.6 1461.5C957.5 1467.3 952.3 1476.5 947.5 1481.3C938.2 1490.4 924.4 1495.2 907 1495.4L896.4 1495.5L774.2 1406.5C706.9 1357.5 645.5 1312.9 637.7 1307.3C624.3 1297.6 623 1296.9 614.5 1294.9C602 1291.8 581 1291.1 572 1293.5C563.6 1295.7 560.7 1297.2 554.7 1302.8C545.2 1311.8 541.4 1323 541.6 1342C541.7 1354.8 543.8 1367.8 548 1381.2L550 1387.7L570.7 1405.1C598.1 1428.2 825.6 1618.7 857 1644.9C888.2 1670.8 889.4 1672.1 893.5 1680.5C901.8 1697.3 899.2 1714.2 886.2 1729.3C880.7 1735.7 876.4 1739 871.1 1740.8C865.5 1742.8 851.5 1742.2 842 1739.6ZM825.9 1333.8C828.6 1330.9 829.5 1326.3 829.4 1316C829.1 1302.5 826.8 1291.7 812.8 1240C805.6 1213.3 799.1 1189 798.5 1186C797.8 1183 796.1 1176.2 794.7 1171C793.3 1165.8 788.1 1146.4 783.1 1128C778.2 1109.6 771.8 1086 769 1075.5C766.2 1065 761.4 1047.3 758.4 1036C755.4 1024.7 751.6 1010.8 750 1005C748.4 999.2 743.7 981.9 739.6 966.5C735.5 951.1 726.7 918.4 720 893.8C713.4 869.2 707.3 844.5 706.4 838.8C704.3 825.2 704.4 801.5 706.5 788.1C713.6 744 738.5 708.6 780 683.6C802 670.3 812.4 667 838.8 665C876.3 662.1 912.1 670.3 938.5 687.9C954.3 698.4 970.6 716.4 979 732.8C980.9 736.5 996.2 788.4 1021.9 878.5C1043.9 955.5 1062.3 1019.8 1063 1021.4L1064.1 1024.3L1066.3 1022.3C1067.5 1021.3 1071 1018.2 1074 1015.6C1086.5 1004.6 1107.9 992.3 1123.8 987C1142.5 980.8 1164.5 979.4 1181.8 983.5C1199.8 987.8 1218.7 998.7 1236.6 1015.3C1246.7 1024.7 1248 1024.6 1255.6 1014.3C1273.5 990.1 1298.7 970.7 1323.8 961.6C1348 952.9 1378.4 952.7 1404.5 961C1422.4 966.8 1452.9 984.1 1463.5 994.5C1466 997.1 1469 999 1470.2 999C1471.5 999 1474.6 996.6 1478.4 992.7C1488.9 981.9 1510.4 965.3 1520.9 960C1523.3 958.8 1528.2 957.3 1531.9 956.6L1538.5 955.4L1538.8 667.4L1539 379.5L1536.9 372.6C1534.5 365.1 1528.2 355.9 1522.5 351.6C1520.6 350.1 1516 347.5 1512.2 345.7L1505.5 342.5L1423.4 342.5L1341.4 342.5L1337.2 345.2C1335 346.7 1331.8 350.1 1330.3 352.7L1327.5 357.5L1327 431.1L1326.5 504.7L1323.6 508.9C1319.3 515.1 1310.8 522.5 1304.4 525.6C1296.5 529.5 1287.7 529.4 1279.5 525.4C1272.7 522.1 1260.4 510.5 1257.7 504.8C1256.2 501.5 1256 494.8 1256 431.3L1256 361.5L1253.6 356.4C1250.8 350.3 1245.2 345.4 1238.7 343.5C1234.7 342.3 1204.7 342 1047.7 341.4C945.3 341 859.4 341 856.9 341.4C850.7 342.3 844 346.9 841 352.2L838.5 356.5L838.2 430.4L837.9 504.4L830 512.1C815.6 526.1 800.7 531.4 786.4 527.5C778.5 525.4 768.1 518.3 761.4 510.4L756.5 504.7L756 433.1L755.5 361.5L752.7 355.7C749.6 349.5 745.8 346 738.9 343.3C734.9 341.7 728.2 341.5 658 341.2C576.4 340.8 575.1 340.9 565.6 345.7C552.4 352.4 544.8 364.4 543 381.5C542.3 388.4 542 515.9 542.2 793C542.5 1173.1 542.6 1194.8 544.3 1199.7C547.7 1209.8 546.3 1209.3 573.1 1209.1C586 1209 601 1209.4 606.5 1210C644.5 1214.2 675.6 1226.5 695.7 1245.3C702.3 1251.5 808.8 1331.9 813.9 1334.6C817.9 1336.7 823.6 1336.4 825.9 1333.8ZM1223.5 266.7C1237.1 260.6 1238.5 247.6 1227.8 228.1C1208.8 193.3 1194.2 172.9 1174 153C1146.4 125.6 1117.9 109.4 1083.5 101.4C1076.6 99.7 1071.1 99.5 1042.5 99.5C1006.2 99.5 1001.6 100 983.5 106.2C964.7 112.6 952.2 119.4 934.1 132.9C904 155.3 877.6 188.5 855.9 231.3C844.5 253.8 843.1 258.7 847.1 263.3C852.2 269.3 841.2 268.9 1038.5 268.7C1210.3 268.5 1219.7 268.4 1223.5 266.7Z"/></svg>
